<?xml version="1.0" encoding="UTF-8"?>
<!DOCTYPE svg PUBLIC "-//W3C//DTD SVG 1.0//EN" "http://www.w3.org/TR/2001/REC-SVG-20010904/DTD/svg10.dtd">
<!-- Creator: CorelDRAW X8 -->
<svg xmlns="http://www.w3.org/2000/svg" xml:space="preserve" width="275px" height="53px" version="1.0" style="shape-rendering:geometricPrecision; text-rendering:geometricPrecision; image-rendering:optimizeQuality; fill-rule:evenodd; clip-rule:evenodd"
viewBox="0 0 14163 2731"
 xmlns:xlink="http://www.w3.org/1999/xlink">
 <defs>
  <style type="text/css">
   <![CDATA[
    .fil1 {fill:black}
    .fil2 {fill:#ED3237}
    .fil3 {fill:#FAA831}
    .fil4 {fill:black;fill-rule:nonzero}
    .fil0 {fill:#B5090E;fill-rule:nonzero}
   ]]>
  </style>
 </defs>
 <g id="Layer_x0020_1">
  <metadata id="CorelCorpID_0Corel-Layer"/>
  <g id="_2967608347280">
   <path class="fil0" d="M2644 2481c24,-2 45,-4 64,-4 55,0 108,4 160,4 138,0 216,-66 216,-175 0,-106 -66,-157 -202,-157l0 -4c121,-8 187,-63 187,-147 0,-95 -67,-144 -202,-144 -33,0 -69,3 -107,3 -23,0 -61,-1 -116,-3 11,90 11,194 11,314l0 82c0,85 -1,162 -11,231zm147 -53c-2,-50 -3,-94 -3,-130l0 -119c10,-1 19,-1 27,-1 82,0 126,44 126,126 0,83 -43,128 -117,128 -11,0 -21,-2 -33,-4zm-4 -300l0 -108c0,-42 2,-81 6,-114 10,-1 20,-2 30,-2 72,0 111,36 111,103 0,84 -42,122 -129,122 -5,0 -12,-1 -18,-1zm501 108c24,-71 51,-142 84,-210 30,68 57,139 79,210 -27,1 -55,2 -81,2 -28,0 -54,-1 -82,-2zm-173 245c15,-2 29,-3 43,-3 13,0 27,1 39,3 21,-56 42,-118 65,-185 36,-1 72,-1 108,-1 36,0 71,0 107,1 19,58 40,119 61,185 26,-3 52,-4 79,-4 26,0 53,1 79,4 -95,-219 -180,-432 -256,-639 -10,2 -21,3 -33,3 -12,0 -23,-1 -36,-3 -77,217 -162,431 -256,639zm638 0c25,-3 50,-5 76,-5 25,0 51,2 77,5 -7,-74 -10,-120 -10,-137l0 -135c10,0 20,1 30,1 170,0 252,-61 252,-192 0,-115 -67,-165 -208,-165 -60,0 -110,5 -152,5 -19,0 -40,-1 -65,-4 9,94 11,199 11,314 0,110 -1,214 -11,313zm142 -321l0 -152c0,-34 3,-68 6,-102 10,-1 20,-2 29,-2 69,0 103,39 103,119 0,97 -40,137 -138,137zm339 290c39,30 93,43 164,43 141,0 230,-84 230,-207 0,-50 -15,-90 -48,-124 -27,-27 -76,-46 -134,-77 -66,-34 -100,-56 -100,-106 0,-48 35,-81 89,-81 57,0 105,33 124,88l10 0c7,-30 17,-64 30,-101 -43,-29 -91,-43 -147,-43 -134,0 -216,80 -216,187 0,102 61,143 171,201 66,36 106,58 106,112 0,55 -40,93 -103,93 -68,0 -118,-40 -134,-112l-12 0c-9,47 -19,89 -30,127zm715 0c39,30 93,43 164,43 141,0 230,-84 230,-207 0,-50 -15,-90 -48,-124 -27,-27 -76,-46 -134,-77 -65,-34 -100,-56 -100,-106 0,-48 35,-81 90,-81 57,0 104,33 123,88l10 0c7,-30 17,-64 30,-101 -43,-29 -91,-43 -147,-43 -134,0 -216,80 -216,187 0,102 61,143 171,201 66,36 106,58 106,112 0,55 -40,93 -103,93 -68,0 -118,-40 -134,-112l-12 0c-9,47 -19,89 -30,127zm569 31c17,-3 34,-5 51,-5 18,0 35,2 52,5 28,-97 58,-196 91,-298 35,109 66,208 90,298 18,-3 34,-5 51,-5 16,0 34,2 50,5 45,-149 95,-296 149,-439 -12,3 -24,4 -35,4 -12,0 -24,-1 -36,-4 -26,93 -57,196 -92,310 -35,-116 -65,-218 -89,-310 -18,3 -35,4 -53,4 -18,0 -36,-1 -53,-4 -26,99 -56,202 -91,310 -25,-87 -55,-190 -89,-310 -22,3 -45,4 -67,4 -23,0 -45,-1 -67,-4 48,143 95,289 138,439zm804 -242l0 107c0,57 -24,85 -63,85 -38,0 -57,-26 -57,-79 0,-64 36,-96 120,-113zm4 184c10,44 39,66 82,66 29,0 64,-6 97,-20l0 -23 -3 0c-54,0 -61,-23 -61,-88l0 -18 3 -159 0 -5c0,-94 -61,-147 -171,-147 -58,0 -110,23 -163,70 8,21 15,41 20,59 29,-48 62,-71 103,-71 52,0 87,35 87,91 0,5 0,10 -1,16 -36,24 -88,34 -145,54 -65,22 -96,58 -96,116 0,79 47,128 124,128 54,0 98,-25 124,-69zm240 58c23,-3 45,-5 67,-5 23,0 45,2 66,5 -2,-31 -3,-60 -3,-84l0 -145c0,-94 13,-144 74,-144 71,0 73,59 73,182 0,50 -1,113 -7,191 23,-3 45,-5 68,-5 23,0 46,2 69,5 -2,-31 -4,-60 -4,-84l0 -145c0,-95 15,-144 75,-144 67,0 74,54 74,166 0,60 -3,128 -8,207 22,-3 44,-5 67,-5 23,0 46,2 69,5 -2,-54 -4,-110 -4,-167l0 -57c0,-85 -1,-142 -34,-181 -25,-28 -61,-44 -106,-44 -63,0 -110,28 -146,85 -21,-56 -66,-85 -127,-85 -60,0 -100,26 -135,71l0 -61c-20,3 -42,4 -64,4 -21,0 -42,-1 -64,-4 4,98 6,170 6,219 0,46 -2,121 -6,220zm799 -604c0,38 30,69 69,69 38,0 69,-31 69,-69 0,-39 -30,-70 -68,-70 -40,0 -70,31 -70,70zm0 604c23,-3 46,-5 69,-5 24,0 46,2 68,5 -4,-75 -7,-147 -7,-219 0,-79 3,-152 7,-220 -22,3 -44,4 -68,4 -23,0 -46,-1 -69,-4 4,68 7,141 7,220 0,71 -3,144 -7,219zm252 0c22,-3 44,-5 67,-5 22,0 45,2 67,5 -4,-96 -6,-169 -6,-220 0,-102 18,-152 78,-152 67,0 73,50 73,158 0,93 -2,164 -7,214 23,-3 45,-5 68,-5 23,0 46,2 69,5 -5,-51 -7,-102 -7,-155 0,-52 1,-90 1,-115 0,-59 -1,-102 -28,-134 -25,-29 -63,-45 -109,-45 -57,0 -103,24 -141,73l0 -63c-20,3 -40,4 -61,4 -21,0 -43,-1 -64,-4 5,68 8,141 8,220 0,71 -3,144 -8,219zm742 -242l0 107c0,57 -24,85 -63,85 -38,0 -57,-26 -57,-79 0,-64 36,-96 120,-113zm4 184c10,44 39,66 82,66 29,0 64,-6 97,-20l0 -23 -3 0c-54,0 -61,-23 -61,-88l0 -18 3 -159 0 -5c0,-94 -60,-147 -171,-147 -57,0 -110,23 -163,70 8,21 15,41 20,59 29,-48 62,-71 103,-71 52,0 87,35 87,91 0,5 0,10 -1,16 -36,24 -88,34 -145,54 -65,22 -96,58 -96,116 0,79 47,128 124,128 54,0 98,-25 124,-69zm240 58c23,-3 45,-5 68,-5 23,0 46,2 68,5 -4,-52 -8,-119 -8,-199 0,-88 24,-131 86,-131 18,0 38,6 60,14 -4,-23 -6,-46 -6,-69 0,-22 2,-44 6,-66l-5 0c-70,0 -119,44 -141,129l-5 0c0,-30 2,-69 5,-117 -21,3 -42,4 -63,4 -23,0 -44,-1 -65,-4 6,61 7,134 7,219 0,81 -2,155 -7,220zm569 -242l0 107c0,57 -23,85 -63,85 -38,0 -57,-26 -57,-79 0,-64 37,-96 120,-113zm4 184c10,44 40,66 83,66 28,0 63,-6 96,-20l0 -23 -3 0c-54,0 -60,-23 -60,-88l0 -18 3 -159 0 -5c0,-94 -61,-147 -171,-147 -58,0 -110,23 -164,70 9,21 15,41 21,59 28,-48 61,-71 102,-71 53,0 88,35 88,91 0,5 0,10 -1,16 -37,24 -88,34 -145,54 -65,22 -97,58 -97,116 0,79 47,128 124,128 54,0 98,-25 124,-69zm308 198c-21,43 -40,79 -60,110 16,-1 29,-2 43,-2 14,0 27,1 39,2 86,-218 183,-448 293,-689 -12,3 -25,4 -38,4 -12,0 -25,-1 -38,-4l-106 283c-42,-96 -78,-190 -109,-283 -24,3 -48,4 -72,4 -24,0 -48,-1 -72,-4l188 439 -68 140zm592 -382l0 107c0,57 -24,85 -64,85 -37,0 -56,-26 -56,-79 0,-64 36,-96 120,-113zm3 184c11,44 40,66 83,66 28,0 63,-6 96,-20l0 -23 -2 0c-54,0 -61,-23 -61,-88l0 -18 3 -159 0 -5c0,-94 -61,-147 -171,-147 -58,0 -110,23 -163,70 8,21 14,41 20,59 28,-48 61,-71 103,-71 52,0 87,35 87,91 0,5 0,10 -1,16 -37,24 -88,34 -145,54 -65,22 -96,58 -96,116 0,79 46,128 124,128 54,0 98,-25 123,-69zm241 58c22,-3 44,-5 67,-5 22,0 45,2 67,5 -5,-96 -6,-169 -6,-220 0,-102 18,-152 78,-152 67,0 73,50 73,158 0,93 -3,164 -7,214 23,-3 45,-5 68,-5 23,0 46,2 68,5 -4,-51 -6,-102 -6,-155 0,-52 1,-90 1,-115 0,-59 -1,-102 -28,-134 -25,-29 -63,-45 -109,-45 -58,0 -104,24 -141,73l0 -63c-20,3 -41,4 -62,4 -21,0 -42,-1 -63,-4 5,68 7,141 7,220 0,71 -2,144 -7,219zm752 -31c39,30 93,43 164,43 141,0 231,-84 231,-207 0,-50 -16,-90 -49,-124 -27,-27 -75,-46 -134,-77 -65,-34 -100,-56 -100,-106 0,-48 36,-81 90,-81 57,0 104,33 123,88l10 0c7,-30 17,-64 30,-101 -43,-29 -91,-43 -147,-43 -134,0 -215,80 -215,187 0,102 60,143 170,201 66,36 106,58 106,112 0,55 -40,93 -103,93 -68,0 -117,-40 -134,-112l-12 0c-9,47 -19,89 -30,127zm705 -211l0 107c0,57 -24,85 -64,85 -37,0 -56,-26 -56,-79 0,-64 36,-96 120,-113zm4 184c10,44 39,66 82,66 29,0 63,-6 96,-20l0 -23 -2 0c-54,0 -61,-23 -61,-88l0 -18 3 -159 0 -5c0,-94 -61,-147 -171,-147 -58,0 -110,23 -163,70 8,21 14,41 20,59 28,-48 61,-71 103,-71 52,0 87,35 87,91 0,5 0,10 -1,16 -37,24 -88,34 -145,54 -65,22 -96,58 -96,116 0,79 46,128 124,128 54,0 98,-25 124,-69zm240 58c22,-3 44,-5 67,-5 22,0 45,2 67,5 -5,-96 -6,-169 -6,-220 0,-102 18,-152 78,-152 67,0 73,50 73,158 0,93 -3,164 -7,214 23,-3 45,-5 68,-5 23,0 46,2 69,5 -5,-51 -7,-102 -7,-155 0,-52 1,-90 1,-115 0,-59 -1,-102 -28,-134 -25,-29 -63,-45 -109,-45 -58,0 -104,24 -141,73l0 -63c-20,3 -41,4 -62,4 -21,0 -42,-1 -63,-4 5,68 7,141 7,220 0,71 -2,144 -7,219zm523 -126c-5,50 -9,84 -12,102 39,26 83,36 137,36 106,0 175,-64 175,-156 0,-82 -54,-103 -150,-141 -51,-20 -78,-32 -78,-68 0,-32 27,-57 66,-57 46,0 82,29 108,85l9 0c6,-31 15,-60 27,-86 -41,-26 -84,-39 -132,-39 -104,0 -168,62 -168,150 0,64 37,94 111,125 68,29 107,41 107,82 0,39 -24,62 -68,62 -55,0 -99,-34 -119,-95l-13 0zm413 -261l0 49c0,123 -2,199 -2,228 0,79 42,121 120,121 34,0 68,-9 105,-26l0 -34c-21,6 -38,9 -53,9 -48,0 -50,-42 -50,-154l0 -37c0,-45 2,-97 3,-156 40,0 70,0 91,1 -1,-8 -2,-15 -2,-24 0,-7 1,-15 2,-23 -30,2 -59,3 -89,3l0 -28c0,-25 2,-72 6,-142l-10 -7c-35,18 -77,36 -124,53 2,27 4,56 4,88 0,12 0,24 -1,36l-10 0c-15,0 -33,-2 -52,-3 2,8 3,16 3,23 0,9 -1,16 -3,24 16,-1 31,-1 46,-1l16 0zm282 387c22,-3 44,-5 67,-5 22,0 45,2 67,5 -4,-96 -6,-169 -6,-220 0,-102 18,-152 78,-152 67,0 73,50 73,158 0,93 -3,164 -7,214 23,-3 45,-5 68,-5 22,0 45,2 68,5 -5,-51 -6,-102 -6,-155 0,-52 1,-90 1,-115 0,-59 -2,-102 -29,-134 -25,-29 -62,-45 -108,-45 -60,0 -108,26 -141,76l0 -142c0,-63 3,-121 9,-174 -22,5 -44,8 -67,8 -22,0 -44,-3 -67,-8 7,96 8,216 8,362 0,140 -1,248 -8,327zm741 -242l0 107c0,57 -24,85 -63,85 -38,0 -57,-26 -57,-79 0,-64 36,-96 120,-113zm4 184c10,44 39,66 82,66 29,0 64,-6 97,-20l0 -23 -3 0c-54,0 -61,-23 -61,-88l0 -18 3 -159 0 -5c0,-94 -60,-147 -171,-147 -57,0 -110,23 -163,70 8,21 15,41 20,59 29,-48 62,-71 103,-71 52,0 87,35 87,91 0,5 0,10 -1,16 -36,24 -88,34 -145,54 -65,22 -96,58 -96,116 0,79 47,128 124,128 54,0 98,-25 124,-69z"/>
   <path class="fil1" d="M367 2716c-6,-5 -15,-12 -17,-19 2,-57 3,-114 5,-170 -2,-48 -4,-94 -6,-140 5,-6 11,-12 17,-18 61,0 122,1 183,2 48,4 105,21 119,72 0,7 0,14 0,22 -10,39 -47,54 -84,64 0,0 0,0 0,1 32,6 65,19 88,41 3,6 7,12 11,19 2,5 3,12 5,18 0,7 0,15 1,22 -8,64 -78,74 -130,84 -64,0 -128,1 -192,2zm365 15c-12,-16 -23,-32 -34,-47 53,-75 106,-150 160,-224 -12,-15 -23,-31 -34,-46 18,-13 89,-63 97,-60 35,54 70,108 106,162 37,50 75,101 112,152 -34,21 -67,41 -101,63 -48,-73 -96,-147 -143,-220 -21,25 -42,51 -61,77 -35,47 -69,95 -102,143zm452 -15c-8,-5 -15,-10 -22,-15 1,-53 2,-105 5,-157 -3,-54 -4,-107 -5,-160 5,-6 12,-11 18,-16 59,0 119,1 179,2 10,1 21,3 32,6 48,16 77,43 84,95 -2,28 -7,49 -25,72 -22,22 -52,33 -81,42 -32,3 -62,6 -93,9 2,41 6,82 11,123 -34,-1 -69,0 -103,-1zm88 -149c1,-58 1,-115 3,-171 35,5 65,14 86,45 2,6 5,11 8,18 2,16 4,35 -1,51 -12,31 -44,47 -75,54 -7,1 -14,2 -21,3zm243 150c-7,-7 -13,-14 -19,-21 22,-4 43,-12 56,-29 2,-4 3,-7 5,-11 0,-7 0,-14 1,-20 -8,-41 -32,-84 -49,-122 -3,-11 -5,-22 -7,-32 -1,-9 -1,-17 -1,-26 4,-26 11,-44 30,-63 30,-22 69,-32 107,-32 5,6 11,12 17,20 -20,5 -34,10 -50,24 -3,4 -5,8 -7,13 -3,17 0,34 5,51 13,34 27,68 40,103 4,22 10,44 4,67 -5,8 -9,16 -14,25 -5,5 -11,10 -17,16 -17,11 -37,19 -56,27 -16,3 -31,7 -45,10zm-1056 -188c1,-44 2,-89 2,-133 33,3 71,8 93,37 2,6 5,12 8,19 0,7 0,14 0,22 -8,44 -66,53 -103,55zm2 156c0,-44 1,-88 2,-132 42,3 99,10 117,55 14,68 -75,73 -119,77z"/>
   <path class="fil2" d="M879 2712c-33,-11 -55,-26 -53,-65 7,-36 51,-56 84,-42 22,11 30,20 37,43 0,3 0,6 1,10 -5,39 -33,51 -69,54z"/>
   <path class="fil2" d="M411 2151c-8,-16 -28,-32 -34,-48 -10,-14 -20,-28 -30,-42 -1,-6 -1,-11 -1,-17 6,-4 6,-6 14,-6 4,3 9,6 14,10 0,-18 1,-35 2,-52 -16,0 -32,-1 -47,-1 -7,-9 -12,-18 -18,-26 129,-1 258,-1 386,-1 -9,-17 -12,-39 0,-56 4,-3 9,-7 14,-10 4,-1 9,-2 14,-2 30,-1 51,13 77,29 5,6 32,21 14,30 -21,-17 -62,-47 -90,-28 -4,3 -7,8 -10,12 -1,8 -1,17 -1,26 320,0 640,0 960,0 5,9 11,17 17,27 -14,0 -27,0 -39,0 -1,48 -2,96 -2,143 -9,-6 -18,-12 -28,-18 0,-41 0,-83 0,-124 -14,-1 -27,-1 -41,-1 -1,29 -1,58 -1,87 -2,7 -10,14 -15,19 -6,2 -11,3 -16,5 -18,-3 -40,-10 -51,-27 -4,-6 -9,-12 -13,-18 -1,-22 -1,-44 -1,-65 -12,-1 -25,-1 -38,-1 -1,48 -1,96 -1,144 -10,-7 -20,-13 -29,-20 -1,-10 -1,-19 -1,-28 -25,12 -47,18 -72,-1 -10,-11 -33,-41 -28,-57 12,-2 25,-8 36,-12 5,-10 3,-15 -2,-26 -24,0 -48,0 -72,0 0,48 0,96 0,144 -10,-7 -20,-14 -29,-21 0,-42 0,-82 0,-123 -17,0 -34,0 -51,0 -1,22 -2,43 -2,65 -2,8 -13,17 -18,24 12,14 25,34 40,44 -3,5 -7,9 -10,13 -21,-24 -41,-52 -62,-75 -2,-5 -12,-17 -9,-23 1,-2 2,-4 4,-6 2,0 5,0 8,0 5,1 18,9 21,6 0,-16 0,-32 0,-48 -23,0 -47,0 -70,0 0,48 0,96 0,143 -10,-6 -19,-12 -28,-19 -1,-41 -1,-82 -1,-123 -13,0 -25,0 -38,0 0,48 0,95 0,143 -10,-7 -20,-14 -29,-21 0,-22 0,-44 0,-66 -14,0 -28,0 -40,0 -5,5 -4,15 -5,22 -2,3 -7,2 -11,3 -15,-13 -29,-28 -29,-48 1,-2 3,-3 5,-4 25,-1 52,0 78,0 0,-10 1,-20 2,-29 -39,-1 -77,-1 -115,-1 -1,48 -1,96 -1,144 -10,-7 -20,-13 -29,-20 -1,-13 -1,-25 -1,-37 -16,-1 -32,0 -49,0 -1,6 -1,12 -2,19 -17,8 -40,-25 -45,-37 0,-12 5,-10 16,-10 0,-20 0,-39 0,-59 -19,0 -36,0 -54,0 -1,48 -1,96 -1,144 -10,-7 -20,-13 -29,-20 -1,-41 -1,-82 -1,-123 -14,-1 -28,-1 -42,-1 0,48 0,96 0,144 -11,-7 -20,-13 -29,-20 -1,-41 -1,-82 -1,-124 -12,0 -25,0 -37,0 -1,48 -2,96 -2,143 -9,-6 -18,-12 -27,-19 -1,-9 -2,-18 -2,-27 -8,4 -16,9 -23,14 -8,0 -16,2 -24,3 -21,-4 -35,-15 -48,-31 -9,1 -17,3 -25,4 -5,-2 -10,-3 -15,-5 -5,-4 -9,-7 -14,-11 -6,9 -17,16 -21,24 13,16 28,31 42,47 -5,4 -9,8 -14,13zm82 -64c-15,-7 -12,-7 -14,-22 11,-37 48,-28 74,-10 0,2 0,4 0,6 -18,11 -40,24 -60,26zm-74 -32c-5,0 -9,-1 -13,-2 0,-19 0,-38 0,-57 49,0 98,0 148,0 -1,15 -2,29 -2,43 -9,-9 -18,-16 -27,-24 -30,-5 -52,-4 -71,23 -1,4 -3,8 -3,13 -9,4 -22,4 -32,4zm389 0c0,-19 0,-39 0,-59 16,0 33,0 50,0 0,20 0,39 0,59 -16,0 -33,0 -50,0zm548 24c-14,-7 -14,-11 -8,-24 10,-2 26,-7 33,-14 0,-16 -12,-30 -12,-45 16,0 32,0 48,0 -1,20 -1,40 -1,60 -4,2 -7,5 -11,8 -11,4 -22,9 -33,14 -5,0 -11,0 -16,1zm170 2c-6,-1 -8,-4 -11,-10 0,-25 0,-50 0,-75 12,0 24,0 37,0 0,22 -1,43 -1,65 -3,16 -10,16 -25,20z"/>
   <path class="fil3" d="M977 1887c-20,-4 -39,-7 -58,-11 -17,-6 -34,-11 -51,-17 -25,-13 -51,-29 -74,-46 -17,-16 -33,-32 -49,-47 -16,-23 -30,-47 -43,-73 -13,-33 -22,-66 -27,-102 -2,-257 -3,-514 -5,-770 15,0 30,0 45,0 2,258 6,516 10,774 5,40 19,74 37,110 12,16 25,32 37,47 23,27 56,46 87,62 11,4 21,8 33,12 12,3 24,6 37,9 20,0 40,2 60,3 33,-3 66,-11 97,-22 36,-17 68,-40 97,-68 6,-9 13,-18 21,-26 7,-13 14,-26 22,-39 13,-30 22,-63 26,-95 2,-256 4,-511 6,-766 15,0 30,0 45,0 -1,251 -1,503 -1,755 -7,84 -38,157 -98,218 -9,7 -17,15 -26,23 -11,7 -23,15 -33,22 -52,27 -106,41 -163,47 -10,0 -21,0 -32,0z"/>
   <path class="fil2" d="M984 1535c-86,-11 -153,-54 -195,-129 -7,-18 -14,-36 -19,-55 -4,-29 -6,-58 -2,-87 9,-58 39,-103 81,-142 20,-13 40,-26 61,-37 12,-4 25,-8 38,-11 30,-5 61,-7 90,-2 54,9 99,38 136,77 5,7 11,14 17,21 21,33 32,67 39,106 0,8 1,16 1,24 0,11 -1,22 -2,34 -13,88 -74,158 -156,189 -13,3 -24,6 -35,9 -19,0 -37,2 -54,3z"/>
   <path class="fil1" d="M303 2260c-31,-2 -61,-3 -91,-3 0,-2 0,-2 0,-3 -37,-9 -16,-63 20,-55 0,-129 1,-259 2,-388 2,-10 8,-18 16,-26 -2,-3 -2,-6 -3,-8 0,-9 1,-11 6,-18 -17,-18 -2,-38 16,-47 6,-1 12,-2 19,-4 26,0 44,14 44,41 -2,4 -5,7 -6,12 1,3 2,5 4,9 0,12 -9,14 1,23 2,10 4,19 7,29 4,0 8,0 12,0 6,-97 12,-193 18,-289 -18,-11 -26,-25 -12,-44 -4,-16 -6,-31 -9,-46 -5,-2 -10,-3 -15,-3 0,-27 0,-54 0,-81 -7,-6 -15,-12 -23,-18 -6,-9 -13,-18 -19,-27 -5,-16 -6,-30 -7,-46 -16,-1 -29,-7 -36,-21 -1,-3 -1,-6 -1,-9 -16,-8 -17,-15 -17,-32 -14,-10 -14,-14 -16,-31 -20,-12 -36,-30 -46,-51 -3,-10 -5,-20 -8,-30 -14,1 -22,3 -33,10 -28,-29 -33,-62 -33,-100 5,-15 9,-30 13,-45 -4,-12 -8,-24 -13,-35 -1,-15 -2,-29 -3,-42 2,-12 3,-24 6,-36 -32,-2 -63,-4 -95,-5 0,-30 -1,-59 -1,-87 17,0 35,0 53,1 2,-5 4,-9 6,-13 13,-13 3,-23 5,-38 5,-11 10,-21 15,-31 6,-9 11,-17 17,-26 1,0 2,0 3,0 17,23 52,60 28,91 3,6 7,12 10,19 16,-15 32,-28 48,-42 33,-23 68,-41 108,-49 0,-15 0,-30 1,-44 26,-6 44,6 65,19 8,-8 -2,-13 -6,-22 0,-10 1,-19 4,-29 11,-18 22,-36 34,-53 1,0 2,0 3,0 10,21 21,42 32,62 0,7 0,15 0,22 -3,5 -5,10 -7,16 3,6 7,11 12,18 39,-3 80,-9 116,-27 46,-32 92,-64 139,-95 48,-29 95,-59 146,-84 15,-7 30,-14 45,-21 -14,-18 -4,-29 13,-42 10,-4 20,-8 31,-12 -25,-123 -50,-245 -74,-367 0,-1 0,-3 1,-4 5,-2 11,-2 17,-3 1,6 3,13 4,20 1,0 3,0 4,1 27,-11 51,-12 79,-13 78,8 144,69 224,63 13,-2 28,-10 40,-16 -5,20 -17,37 -32,52 -26,12 -55,21 -84,19 6,13 29,14 42,16 9,-2 18,-5 27,-7 8,-4 18,-13 26,-13 -3,7 -6,13 -9,20 -9,8 -17,16 -26,25 -18,9 -38,17 -59,21 -15,0 -29,0 -43,1 0,4 0,8 0,12 -1,11 -8,20 -15,29 3,4 5,8 8,13 0,4 -1,8 -1,12 17,10 23,25 30,43 -2,16 -7,23 -19,35 -6,3 -13,4 -15,11 0,0 1,0 2,0 0,11 26,21 31,32 10,3 20,7 30,10 12,9 28,27 13,42 27,12 55,25 83,39 85,45 164,103 243,156 8,3 15,7 22,11 32,9 69,21 102,18 4,-6 7,-11 12,-17 -14,-23 -8,-38 2,-61 8,-14 15,-27 22,-40 16,23 44,52 41,82 -3,5 -7,11 -10,17 1,2 2,4 4,6 7,-5 15,-10 24,-15 6,-2 13,-4 20,-6 7,0 14,1 21,2 0,14 0,29 1,44 13,3 27,6 41,10 19,11 39,21 59,32 19,15 38,30 55,47 3,0 11,-15 11,-19 -2,-6 -5,-12 -7,-17 0,-12 4,-24 8,-36 9,-13 19,-25 29,-38 12,19 24,38 34,59 0,5 0,10 0,15 -1,5 -2,9 -2,14 4,6 9,13 14,21 18,-1 35,-1 53,-1 -1,28 -2,57 -3,86 -11,0 -87,0 -94,8 7,28 7,59 0,87 -4,9 -7,18 -10,27 5,14 9,27 13,42 0,14 0,30 -2,44 -3,9 -7,18 -10,28 -6,10 -13,19 -18,28 -15,-8 -20,-9 -37,-9 -2,9 -4,18 -5,27 -9,23 -28,41 -47,55 0,14 -4,21 -15,32 0,7 0,13 -4,20 -4,3 -8,6 -11,10 -4,12 -12,24 -24,29 -5,0 -10,0 -15,0 -2,30 -8,53 -27,76 -7,5 -14,10 -20,15 -1,27 -2,55 -2,84 -5,0 -9,0 -13,0 -5,15 -8,30 -12,46 12,18 11,35 -10,45 6,96 12,192 19,289 4,0 8,0 12,1 1,-14 2,-26 12,-36 -1,-2 -3,-4 -4,-6 0,-8 0,-11 3,-19 -15,-28 4,-49 32,-54 6,1 12,1 18,2 21,4 32,20 29,41 -2,3 -4,6 -5,10 1,2 3,5 5,8 -1,5 -3,11 -3,17 8,4 15,16 17,24 0,67 0,134 1,201 -1,1 -2,2 -3,4 1,0 2,0 3,0 1,61 2,122 2,183 27,2 36,7 40,35 -3,8 -8,14 -13,21 -12,1 -22,3 -33,4 -490,1 -979,2 -1467,4zm1365 -1454c0,-15 16,-35 23,-47 5,-7 11,-13 16,-19 0,-19 1,-38 2,-55 31,0 63,21 89,35 13,10 36,28 43,42 -60,9 -117,25 -173,44zm-744 -523c-8,-39 -16,-77 -23,-114 16,0 33,-1 49,2 -3,5 -6,10 -8,16 -1,5 -1,12 -1,18 1,4 3,9 4,14 3,4 7,8 10,13 -6,6 -8,13 -7,24 -11,7 -16,17 -24,27zm-663 1516c-1,-1 -1,-3 -1,-3 4,-5 8,-10 13,-15 -3,-5 -6,-7 -5,-15 1,-2 2,-5 4,-7 -3,-3 -5,-5 -7,-8 -2,-21 15,-25 33,-24 8,3 20,11 16,22 -3,4 -5,7 -7,11 0,1 2,3 3,4 0,3 0,7 1,10 -3,4 -6,7 -8,11 3,4 7,8 11,13 -18,0 -36,0 -53,1zm-8 25c0,-4 0,-8 0,-11 22,0 44,0 66,0 1,3 1,6 2,10 -23,0 -45,0 -68,1zm1441 -26c1,-5 3,-8 6,-12 1,-2 3,-4 5,-5 -3,0 -8,-7 -10,-9 0,-8 1,-10 6,-15 -7,-7 -12,-13 -7,-23 8,-8 14,-8 25,-10 14,3 24,10 23,26 -3,3 -7,6 -7,11 7,4 1,13 -1,18 4,6 9,12 14,18 -18,0 -36,0 -54,1zm24 25c-11,-1 -21,-2 -32,-2 0,-3 0,-7 1,-10 22,0 45,1 67,2 0,3 0,5 0,9 -12,0 -24,0 -36,1zm-1393 417c-35,0 -68,-1 -101,-1 -10,-3 -12,-6 -12,-15 2,-2 4,-4 6,-6 524,0 1049,-1 1573,-1 5,5 5,11 2,17 -6,1 -12,2 -17,4 -484,0 -968,1 -1451,2zm1281 -1614c-12,-8 -15,-18 -9,-33 4,-9 7,-17 11,-25 1,0 3,0 4,0 7,11 12,23 16,35 -2,16 -6,20 -22,23zm-1 31c-4,-2 -7,-2 -10,-3 0,-6 1,-10 6,-13 10,0 37,-3 26,14 -8,0 -15,1 -22,2zm295 68c-15,-8 -17,-16 -8,-34 3,-6 7,-11 11,-16 2,2 4,4 6,6 10,21 20,38 -9,44zm-12 31c-1,-2 -1,-3 -1,-4 2,-4 4,-7 7,-10 9,0 18,-1 28,-1 3,3 6,7 7,12 -14,1 -27,1 -41,3zm-234 95c-1,-1 -1,-2 -1,-3 1,-6 2,-12 4,-19 98,-41 198,-55 304,-62 -9,6 -19,12 -27,18 -23,2 -45,5 -67,8 -31,5 -61,11 -91,17 -18,4 -35,9 -52,14 -24,9 -47,18 -70,27zm-4 45c0,-8 0,-16 0,-23 14,-7 27,-13 41,-20 39,-13 79,-24 119,-34 19,-3 38,-7 58,-11 24,-3 49,-7 75,-9 9,-7 31,-26 43,-26 0,15 -1,31 -1,47 -38,3 -76,7 -114,11 -75,12 -151,31 -221,65zm-710 -540c-3,-4 -4,-16 -4,-21 5,1 10,3 15,5 0,7 -4,14 -11,16zm-44 -214c-7,-33 -15,-68 -20,-101 11,-8 24,22 27,29 4,20 12,57 -7,72zm176 29c-8,-2 -16,-3 -24,-4 -3,-6 -7,-10 -10,-14 -1,-4 -5,-16 -9,-18 1,-9 2,-18 4,-26 -4,-24 -22,-44 -33,-63 -11,0 -29,45 -33,59 0,10 0,20 2,30 -2,3 -5,6 -6,9 -1,3 -1,6 -1,10 -14,-2 -28,-5 -43,-7 6,-24 11,-47 6,-72 -4,-14 -12,-29 -18,-44 8,-8 53,-3 65,-2 15,4 32,7 46,14 40,20 85,42 130,48 9,-1 19,-1 29,-2 -31,26 -74,16 -111,11 0,18 14,30 26,43 8,4 18,7 27,11 6,1 13,2 19,3 -11,12 -53,13 -66,14zm-76 -44c-13,-7 -12,-12 -12,-26 5,-6 9,-13 13,-19 4,0 13,13 15,16 6,17 0,25 -16,29zm-2 28c-8,-3 -13,-5 -11,-14 9,-3 18,-3 28,-4 2,2 3,3 5,5 0,14 -11,12 -22,13zm2 71c-12,-2 -22,-10 -30,-18 -7,-23 3,-33 22,-41 9,0 19,0 29,1 16,11 16,14 19,31 -2,10 -13,20 -22,24 -6,1 -12,2 -18,3zm1 29c-9,0 -18,-3 -27,-6 0,-2 0,-4 0,-6 2,-2 3,-3 4,-4 17,0 35,0 52,0 10,19 -22,9 -29,16zm-1 74c-24,-4 -70,-12 -50,-46 19,-20 59,-17 84,-13 13,4 21,8 28,21 0,3 0,7 0,10 -11,24 -39,25 -62,28zm-40 40c6,-8 12,-17 18,-25 17,0 33,0 50,0 6,8 12,15 18,24 -29,0 -58,1 -86,1zm-56 53c-8,-7 -10,-9 -5,-17 60,-27 141,-28 202,-4 7,4 10,9 9,18 -9,8 -48,-5 -59,-6 -31,-1 -61,-1 -91,-1 -19,3 -38,7 -56,10zm-316 208c-1,-1 -2,-2 -2,-2 20,-14 41,-28 61,-42 30,-21 60,-41 89,-61 27,-16 54,-31 81,-46 34,-17 70,-31 106,-42 10,-2 21,-4 31,-6 36,-2 76,-3 112,3 35,7 70,18 104,33 5,3 12,6 18,8 35,21 70,42 106,62 43,30 86,60 130,90 -13,-2 -25,-4 -37,-5 -76,-20 -153,-45 -230,-63 -56,-8 -111,-14 -167,-15 -34,3 -68,6 -101,9 -102,17 -200,58 -301,77zm-193 98c-26,-4 -51,-6 -77,-9 -2,-27 -2,-54 -3,-81 27,4 31,12 48,34 20,1 41,1 62,2 123,-7 244,-43 361,-79 18,-5 36,-9 53,-14 22,-4 43,-7 65,-11 22,-3 43,-5 64,-7 26,0 52,0 78,1 58,4 117,16 174,29 58,17 117,33 176,50 29,6 58,13 88,19 55,6 109,13 163,7 12,-17 25,-34 48,-32 -1,26 -1,52 -2,78 -12,2 -23,4 -34,7 -84,7 -167,0 -250,-11 -21,-4 -43,-9 -63,-13 -77,-19 -153,-38 -230,-51 -21,-2 -41,-4 -61,-6 -28,0 -55,-1 -82,-1 -24,1 -47,3 -70,5 -109,17 -215,53 -324,70 -32,4 -63,7 -94,11 -30,1 -60,1 -90,2zm0 -100c-29,-7 -13,-42 -1,-59 1,0 1,0 3,0 6,17 28,52 -2,59zm-8 30c-4,-2 -7,-3 -11,-5 0,-1 0,-3 0,-4 1,-2 2,-4 5,-6 8,0 17,-2 25,0 2,3 6,10 4,13 -7,1 -15,2 -23,2zm-279 101c-10,-2 -20,-2 -29,-3 -1,-2 -1,-2 -1,-3 1,-3 4,-6 6,-8 10,0 20,0 30,1 2,3 4,7 6,11 -4,0 -8,1 -12,2zm-7 -31c-25,-10 -10,-33 1,-48 1,0 2,0 3,0 9,13 24,35 6,47 -4,0 -7,0 -10,1zm235 80c-23,-7 -46,-15 -68,-23 -34,-7 -68,-14 -102,-21 9,-10 18,-20 28,-30 11,-8 24,-16 36,-24 12,-6 25,-12 39,-18 9,-2 19,-3 29,-5 0,18 0,35 1,53 5,7 10,13 16,20 5,9 25,36 25,48 -1,0 -3,0 -4,0zm13 45c-22,-9 -43,-17 -65,-26 -40,-11 -82,-21 -123,-28 -30,-4 -58,-8 -87,-10 -9,-7 -18,-13 -27,-18 95,0 195,21 284,52 6,2 12,5 18,8 2,7 3,14 5,21 -2,0 -3,0 -5,1zm7 45c-10,-5 -21,-10 -31,-15 -36,-13 -73,-23 -110,-34 -18,-4 -37,-8 -55,-11 -46,-7 -92,-12 -137,-15 -1,-15 -1,-31 -1,-47 10,0 33,20 42,25 20,5 44,7 65,9 74,11 163,26 228,65 0,5 1,21 -1,23zm587 1302c-229,0 -458,-1 -686,-2 0,-119 0,-238 0,-357 37,0 74,0 112,0 7,-100 14,-200 21,-299 0,-8 0,-16 0,-23 -11,-4 -22,-8 -16,-22 2,-1 3,-2 5,-3 0,-21 -9,-47 -14,-68 -4,0 -7,0 -10,0 0,-27 0,-53 0,-79 -44,-15 -56,-62 -46,-104 -13,3 -35,12 -40,-6 0,-4 1,-7 1,-10 -6,-2 -11,-6 -16,-11 0,-7 1,-13 1,-19 -8,-3 -15,-6 -19,-15 1,-6 2,-13 3,-18 -25,-14 -40,-25 -52,-51 -1,-12 -1,-23 -1,-35 -9,-2 -18,-3 -26,-5 -9,2 -18,3 -26,5 -12,-23 -18,-44 -15,-70 4,-17 9,-32 14,-48 -19,-30 -26,-75 -12,-107 0,-1 1,-2 3,-3 86,10 175,38 252,79 0,-12 0,-24 1,-37 0,-19 -5,-39 -8,-57 -8,-33 -26,-64 -45,-91 0,-2 0,-3 0,-4 40,2 79,3 119,5 60,-2 120,-9 179,-19 70,-17 139,-34 210,-51 46,-7 93,-14 140,-18 80,0 159,7 237,24 53,13 107,26 161,40 20,3 41,7 62,11 35,3 70,7 105,10 27,0 54,0 82,0 20,-1 48,-6 68,-2 -11,17 -23,36 -33,55 -4,11 -8,23 -12,34 -5,32 -12,66 -4,98 72,-45 166,-66 248,-79 6,0 8,11 10,16 3,28 0,67 -17,91 0,15 10,34 14,48 0,9 0,18 1,28 -3,16 -10,31 -16,46 -6,-2 -13,-4 -19,-6 -12,0 -22,2 -32,5 0,16 0,33 -7,48 -5,5 -9,10 -13,16 -12,8 -23,17 -35,23 1,5 3,10 5,15 -6,11 -9,13 -20,18 1,5 1,11 2,17 -6,5 -10,9 -16,12 0,11 2,13 -9,21 -10,1 -21,-1 -30,-6 7,36 2,64 -22,91 -7,6 -15,10 -23,13 0,27 0,53 0,80 -4,0 -7,1 -11,1 -5,21 -10,42 -14,62 0,10 10,11 5,24 -5,2 -10,4 -15,6 7,108 14,215 21,323 37,0 75,0 113,0 0,119 1,237 2,356 -273,2 -545,3 -817,4z"/>
   <path class="fil4" d="M2052 573c-21,0 -40,7 -54,22 -15,15 -24,35 -24,55 0,20 8,39 23,54 15,15 34,24 55,24 20,0 39,-8 55,-23 14,-14 22,-34 22,-55 0,-21 -8,-39 -22,-54 -15,-15 -34,-23 -55,-23zm0 11c18,0 34,7 47,20 12,13 19,29 19,47 0,17 -7,34 -19,46 -13,12 -30,19 -48,19 -17,0 -33,-7 -46,-20 -12,-12 -19,-29 -19,-46 0,-17 7,-34 20,-47 12,-12 28,-19 46,-19zm-32 21l0 87 19 0 0 -36 13 0 17 36 21 0 -19 -39c12,-3 19,-11 19,-24 0,-15 -12,-24 -36,-24l-34 0zm19 12l11 0c14,0 21,4 21,14 0,9 -6,13 -20,13l-12 0 0 -27z"/>
  </g>
 </g>
</svg>
